# xmcd CD database file
# Copyright (C) 1993-2000  Ti Kan
#
# Track frame offsets:
#	150
#	18487
#	34748
#	60496
#	76025
#	96421
#	111201
#	134078
#	159653
#	184292
#	217736
#	231360
#	250024
#	272691
#
# Disc length: 3965 seconds
#
# Revision: 1
# Processed by: cddbd v1.5.2PL0 Copyright (c) Steve Scherf et al.
# Submitted via: xmcd 2.6 PL0
#
DISCID=bd0f7b0e
DTITLE=Guitar Crusher and Rolling Dollar - How I feel
DYEAR=1900
DGENRE=
TTITLE0=I Can Stop Everything
TTITLE1=Shaking That Body
TTITLE2=What's Your Game
TTITLE3=Crazy 'Bout My Baby
TTITLE4=Lonely Days And Nights
TTITLE5=Things Won't Be Like They Used To Be
TTITLE6=My Uncle Bill
TTITLE7=Dark And Lonesome Road
TTITLE8=You Were So Rigth
TTITLE9=Black Night
TTITLE10=Try Again
TTITLE11=Playing With My Love
TTITLE12=I Can't Leave You Alone
TTITLE13=Think
EXTD=
EXTT0=
EXTT1=
EXTT2=
EXTT3=
EXTT4=
EXTT5=
EXTT6=
EXTT7=
EXTT8=
EXTT9=
EXTT10=
EXTT11=
EXTT12=
EXTT13=
PLAYORDER=
